<?xml version="1.0" encoding="utf-8"?>
<!-- Generator: Adobe Illustrator 20.0.0, SVG Export Plug-In . SVG Version: 6.00 Build 0)  -->
<svg version="1.1" id="Layer_1" xmlns="http://www.w3.org/2000/svg" xmlns:xlink="http://www.w3.org/1999/xlink" x="0px" y="0px"
	 viewBox="0 0 504.7 546" style="enable-background:new 0 0 504.7 546;" xml:space="preserve">
<style type="text/css">
	.st0{fill:#ffffff;}
</style>
<g>
	<path class="st0" d="M74.2,168.4C86.4,147.6,228.9,64.3,252.8,64.3c23.9,0,173.8,87.6,181,104.1c7.2,16.5,7.7,198.3,0,208.2
		c-7.7,9.9-157.9,104.1-181.2,104.1c-23.3,0-169.1-89.2-178.4-104.1C64.9,361.6,62,189.1,74.2,168.4 M139.1,207.5
		c-1.5,2.2-1.2,129.3,0.3,131.7c1.3,2.2,110,66.1,113.2,66.1c2.6,0,111.7-59.7,112.6-60.3c1.5-0.8,1.8-4.2,0.1-5.5
		c-1.9-1.5-56.8-32.4-58.4-33.4c-1.6-0.9-3.5-1.1-5.6-0.2c-2.1,0.9-48.7,23.1-48.7,23.1l-49.2-27.8v-57.7l48.9-31.1
		c0,0,50.4,28.6,51.3,29.1c1.8,1,2.8,0.6,4.1-0.1c0.7-0.4,55.9-32.2,57.5-33.1c1.8-1.1,1.8-5,0.4-6.2c-0.7-0.6-109.9-65.8-113-65.8
		C249.4,136.2,140.8,204.9,139.1,207.5"/>
</g>
</svg>
